<svg width="100" height="100" viewBox="0 0 100 100" fill="none" xmlns="http://www.w3.org/2000/svg">
<rect width="100" height="100" rx="16" fill="url(#paint0_linear_4_530)"/>
<path d="M27.4086 38.0363C27.6342 38.0363 27.8173 37.8552 27.8173 37.6318C27.8173 37.4084 27.6342 37.2272 27.4086 37.2272C27.1829 37.2272 27 37.4084 27 37.6318C27 37.8552 27.1829 38.0363 27.4086 38.0363Z" fill="white"/>
<path d="M36.4568 37.9691C36.6826 37.9691 36.8655 37.788 36.8655 37.5645C36.8655 37.3411 36.6826 37.16 36.4568 37.16C36.2312 37.16 36.0482 37.3411 36.0482 37.5645C36.0482 37.788 36.2312 37.9691 36.4568 37.9691Z" fill="white"/>
<path d="M31.9328 40.6084C32.1585 40.6084 32.3415 40.4272 32.3415 40.2038C32.3415 39.9803 32.1585 39.7993 31.9328 39.7993C31.7072 39.7993 31.5242 39.9803 31.5242 40.2038C31.5242 40.4272 31.7072 40.6084 31.9328 40.6084Z" fill="white"/>
<path d="M27.4086 43.2573C27.6342 43.2573 27.8173 43.0761 27.8173 42.8528C27.8173 42.6293 27.6342 42.4482 27.4086 42.4482C27.1829 42.4482 27 42.6293 27 42.8528C27 43.0761 27.1829 43.2573 27.4086 43.2573Z" fill="white"/>
<path d="M50.0292 35.6766C50.4967 35.6766 50.8756 35.3013 50.8756 34.8385C50.8756 34.3757 50.4967 34.0005 50.0292 34.0005C49.5618 34.0005 49.1827 34.3757 49.1827 34.8385C49.1827 35.3013 49.5618 35.6766 50.0292 35.6766Z" fill="white"/>
<path d="M45.5052 38.3255C45.9727 38.3255 46.3516 37.9502 46.3516 37.4875C46.3516 37.0246 45.9727 36.6494 45.5052 36.6494C45.0378 36.6494 44.6587 37.0246 44.6587 37.4875C44.6587 37.9502 45.0378 38.3255 45.5052 38.3255Z" fill="white"/>
<path d="M40.981 40.9744C41.4485 40.9744 41.8274 40.5991 41.8274 40.1364C41.8274 39.6736 41.4485 39.2984 40.981 39.2984C40.5135 39.2984 40.1345 39.6736 40.1345 40.1364C40.1345 40.5991 40.5135 40.9744 40.981 40.9744Z" fill="white"/>
<path d="M36.457 43.6234C36.9244 43.6234 37.3034 43.2481 37.3034 42.7853C37.3034 42.3225 36.9244 41.9473 36.457 41.9473C35.9895 41.9473 35.6105 42.3225 35.6105 42.7853C35.6105 43.2481 35.9895 43.6234 36.457 43.6234Z" fill="white"/>
<path d="M31.9329 46.2627C32.4004 46.2627 32.7794 45.8874 32.7794 45.4246C32.7794 44.9618 32.4004 44.5866 31.9329 44.5866C31.4654 44.5866 31.0865 44.9618 31.0865 45.4246C31.0865 45.8874 31.4654 46.2627 31.9329 46.2627Z" fill="white"/>
<path d="M27.4086 48.4781C27.6342 48.4781 27.8173 48.297 27.8173 48.0735C27.8173 47.85 27.6342 47.6689 27.4086 47.6689C27.1829 47.6689 27 47.85 27 48.0735C27 48.297 27.1829 48.4781 27.4086 48.4781Z" fill="white"/>
<path d="M50.0294 41.7354C50.9643 41.7354 51.7223 40.985 51.7223 40.0594C51.7223 39.1337 50.9643 38.3833 50.0294 38.3833C49.0944 38.3833 48.3365 39.1337 48.3365 40.0594C48.3365 40.985 49.0944 41.7354 50.0294 41.7354Z" fill="white"/>
<path d="M45.5054 44.3844C46.4402 44.3844 47.1982 43.634 47.1982 42.7083C47.1982 41.7826 46.4402 41.0322 45.5054 41.0322C44.5704 41.0322 43.8125 41.7826 43.8125 42.7083C43.8125 43.634 44.5704 44.3844 45.5054 44.3844Z" fill="white"/>
<path d="M40.9811 47.0333C41.9161 47.0333 42.674 46.2829 42.674 45.3572C42.674 44.4316 41.9161 43.6812 40.9811 43.6812C40.0462 43.6812 39.2882 44.4316 39.2882 45.3572C39.2882 46.2829 40.0462 47.0333 40.9811 47.0333Z" fill="white"/>
<path d="M36.4568 49.6726C37.3917 49.6726 38.1497 48.9222 38.1497 47.9965C38.1497 47.0708 37.3917 46.3205 36.4568 46.3205C35.5219 46.3205 34.7639 47.0708 34.7639 47.9965C34.7639 48.9222 35.5219 49.6726 36.4568 49.6726Z" fill="white"/>
<path d="M31.9329 51.4834C32.4004 51.4834 32.7794 51.1082 32.7794 50.6454C32.7794 50.1825 32.4004 49.8074 31.9329 49.8074C31.4654 49.8074 31.0865 50.1825 31.0865 50.6454C31.0865 51.1082 31.4654 51.4834 31.9329 51.4834Z" fill="white"/>
<path d="M27.4086 53.6988C27.6342 53.6988 27.8173 53.5177 27.8173 53.2942C27.8173 53.0708 27.6342 52.8896 27.4086 52.8896C27.1829 52.8896 27 53.0708 27 53.2942C27 53.5177 27.1829 53.6988 27.4086 53.6988Z" fill="white"/>
<path d="M50.0294 46.9561C50.9643 46.9561 51.7223 46.2058 51.7223 45.2801C51.7223 44.3545 50.9643 43.604 50.0294 43.604C49.0944 43.604 48.3365 44.3545 48.3365 45.2801C48.3365 46.2058 49.0944 46.9561 50.0294 46.9561Z" fill="white"/>
<path d="M45.5054 49.6051C46.4402 49.6051 47.1982 48.8547 47.1982 47.929C47.1982 47.0034 46.4402 46.253 45.5054 46.253C44.5704 46.253 43.8125 47.0034 43.8125 47.929C43.8125 48.8547 44.5704 49.6051 45.5054 49.6051Z" fill="white"/>
<path d="M40.9811 52.2444C41.9161 52.2444 42.674 51.494 42.674 50.5683C42.674 49.6427 41.9161 48.8923 40.9811 48.8923C40.0462 48.8923 39.2882 49.6427 39.2882 50.5683C39.2882 51.494 40.0462 52.2444 40.9811 52.2444Z" fill="white"/>
<path d="M36.4568 54.8933C37.3917 54.8933 38.1497 54.1429 38.1497 53.2172C38.1497 52.2917 37.3917 51.5412 36.4568 51.5412C35.5219 51.5412 34.7639 52.2917 34.7639 53.2172C34.7639 54.1429 35.5219 54.8933 36.4568 54.8933Z" fill="white"/>
<path d="M31.9329 56.7041C32.4004 56.7041 32.7794 56.3289 32.7794 55.8661C32.7794 55.4032 32.4004 55.0281 31.9329 55.0281C31.4654 55.0281 31.0865 55.4032 31.0865 55.8661C31.0865 56.3289 31.4654 56.7041 31.9329 56.7041Z" fill="white"/>
<path d="M27.4086 58.9198C27.6342 58.9198 27.8173 58.7387 27.8173 58.5152C27.8173 58.2917 27.6342 58.1106 27.4086 58.1106C27.1829 58.1106 27 58.2917 27 58.5152C27 58.7387 27.1829 58.9198 27.4086 58.9198Z" fill="white"/>
<path d="M50.0292 51.339C50.4967 51.339 50.8756 50.9638 50.8756 50.501C50.8756 50.0381 50.4967 49.663 50.0292 49.663C49.5618 49.663 49.1827 50.0381 49.1827 50.501C49.1827 50.9638 49.5618 51.339 50.0292 51.339Z" fill="white"/>
<path d="M45.5052 53.9783C45.9727 53.9783 46.3516 53.603 46.3516 53.1403C46.3516 52.6774 45.9727 52.3023 45.5052 52.3023C45.0378 52.3023 44.6587 52.6774 44.6587 53.1403C44.6587 53.603 45.0378 53.9783 45.5052 53.9783Z" fill="white"/>
<path d="M40.981 56.6273C41.4485 56.6273 41.8274 56.252 41.8274 55.7892C41.8274 55.3264 41.4485 54.9512 40.981 54.9512C40.5135 54.9512 40.1345 55.3264 40.1345 55.7892C40.1345 56.252 40.5135 56.6273 40.981 56.6273Z" fill="white"/>
<path d="M36.457 59.2762C36.9244 59.2762 37.3034 58.9009 37.3034 58.4381C37.3034 57.9753 36.9244 57.6001 36.457 57.6001C35.9895 57.6001 35.6105 57.9753 35.6105 58.4381C35.6105 58.9009 35.9895 59.2762 36.457 59.2762Z" fill="white"/>
<path d="M31.9328 61.4916C32.1585 61.4916 32.3415 61.3105 32.3415 61.087C32.3415 60.8636 32.1585 60.6824 31.9328 60.6824C31.7072 60.6824 31.5242 60.8636 31.5242 61.087C31.5242 61.3105 31.7072 61.4916 31.9328 61.4916Z" fill="white"/>
<path d="M27.4086 64.1405C27.6342 64.1405 27.8173 63.9594 27.8173 63.736C27.8173 63.5126 27.6342 63.3314 27.4086 63.3314C27.1829 63.3314 27 63.5126 27 63.736C27 63.9594 27.1829 64.1405 27.4086 64.1405Z" fill="white"/>
<path d="M50.0292 56.1165C50.2548 56.1165 50.4378 55.9354 50.4378 55.712C50.4378 55.4886 50.2548 55.3074 50.0292 55.3074C49.8035 55.3074 49.6206 55.4886 49.6206 55.712C49.6206 55.9354 49.8035 56.1165 50.0292 56.1165Z" fill="white"/>
<path d="M45.5052 58.7654C45.7309 58.7654 45.9138 58.5844 45.9138 58.3609C45.9138 58.1375 45.7309 57.9563 45.5052 57.9563C45.2796 57.9563 45.0966 58.1375 45.0966 58.3609C45.0966 58.5844 45.2796 58.7654 45.5052 58.7654Z" fill="white"/>
<path d="M40.9812 61.4144C41.2069 61.4144 41.3898 61.2333 41.3898 61.0098C41.3898 60.7864 41.2069 60.6053 40.9812 60.6053C40.7554 60.6053 40.5725 60.7864 40.5725 61.0098C40.5725 61.2333 40.7554 61.4144 40.9812 61.4144Z" fill="white"/>
<path d="M36.4568 64.0633C36.6826 64.0633 36.8655 63.8822 36.8655 63.6588C36.8655 63.4354 36.6826 63.2542 36.4568 63.2542C36.2312 63.2542 36.0482 63.4354 36.0482 63.6588C36.0482 63.8822 36.2312 64.0633 36.4568 64.0633Z" fill="white"/>
<path d="M31.9328 66.7123C32.1585 66.7123 32.3415 66.5312 32.3415 66.3077C32.3415 66.0843 32.1585 65.9031 31.9328 65.9031C31.7072 65.9031 31.5242 66.0843 31.5242 66.3077C31.5242 66.5312 31.7072 66.7123 31.9328 66.7123Z" fill="white"/>
<path d="M50.0292 61.3375C50.2548 61.3375 50.4378 61.1565 50.4378 60.933C50.4378 60.7095 50.2548 60.5284 50.0292 60.5284C49.8035 60.5284 49.6206 60.7095 49.6206 60.933C49.6206 61.1565 49.8035 61.3375 50.0292 61.3375Z" fill="white"/>
<path d="M45.5052 63.9865C45.7309 63.9865 45.9138 63.8054 45.9138 63.5819C45.9138 63.3584 45.7309 63.1774 45.5052 63.1774C45.2796 63.1774 45.0966 63.3584 45.0966 63.5819C45.0966 63.8054 45.2796 63.9865 45.5052 63.9865Z" fill="white"/>
<path d="M40.9812 66.6354C41.2069 66.6354 41.3898 66.4543 41.3898 66.2309C41.3898 66.0074 41.2069 65.8263 40.9812 65.8263C40.7554 65.8263 40.5725 66.0074 40.5725 66.2309C40.5725 66.4543 40.7554 66.6354 40.9812 66.6354Z" fill="white"/>
<path d="M36.4568 69.2844C36.6826 69.2844 36.8655 69.1033 36.8655 68.8798C36.8655 68.6563 36.6826 68.4752 36.4568 68.4752C36.2312 68.4752 36.0482 68.6563 36.0482 68.8798C36.0482 69.1033 36.2312 69.2844 36.4568 69.2844Z" fill="white"/>
<path d="M50.0292 66.5583C50.2548 66.5583 50.4378 66.3772 50.4378 66.1537C50.4378 65.9303 50.2548 65.7492 50.0292 65.7492C49.8035 65.7492 49.6206 65.9303 49.6206 66.1537C49.6206 66.3772 49.8035 66.5583 50.0292 66.5583Z" fill="white"/>
<path d="M45.5052 69.2072C45.7309 69.2072 45.9138 69.0261 45.9138 68.8027C45.9138 68.5793 45.7309 68.3981 45.5052 68.3981C45.2796 68.3981 45.0966 68.5793 45.0966 68.8027C45.0966 69.0261 45.2796 69.2072 45.5052 69.2072Z" fill="white"/>
<path d="M40.9812 71.8562C41.2069 71.8562 41.3898 71.6751 41.3898 71.4516C41.3898 71.2282 41.2069 71.047 40.9812 71.047C40.7554 71.047 40.5725 71.2282 40.5725 71.4516C40.5725 71.6751 40.7554 71.8562 40.9812 71.8562Z" fill="white"/>
<path d="M50.0292 71.779C50.2548 71.779 50.4378 71.5979 50.4378 71.3744C50.4378 71.151 50.2548 70.9698 50.0292 70.9698C49.8035 70.9698 49.6206 71.151 49.6206 71.3744C49.6206 71.5979 49.8035 71.779 50.0292 71.779Z" fill="white"/>
<path d="M45.5052 74.4279C45.7309 74.4279 45.9138 74.2468 45.9138 74.0233C45.9138 73.8 45.7309 73.6188 45.5052 73.6188C45.2796 73.6188 45.0966 73.8 45.0966 74.0233C45.0966 74.2468 45.2796 74.4279 45.5052 74.4279Z" fill="white"/>
<path d="M50.0292 77C50.2548 77 50.4378 76.8189 50.4378 76.5954C50.4378 76.3721 50.2548 76.1909 50.0292 76.1909C49.8035 76.1909 49.6206 76.3721 49.6206 76.5954C49.6206 76.8189 49.8035 77 50.0292 77Z" fill="white"/>
<path d="M72.5914 38.0363C72.817 38.0363 73 37.8552 73 37.6318C73 37.4084 72.817 37.2272 72.5914 37.2272C72.3657 37.2272 72.1826 37.4084 72.1826 37.6318C72.1826 37.8552 72.3657 38.0363 72.5914 38.0363Z" fill="white"/>
<path d="M63.5336 37.9691C63.7593 37.9691 63.9422 37.788 63.9422 37.5645C63.9422 37.3411 63.7593 37.16 63.5336 37.16C63.3079 37.16 63.1249 37.3411 63.1249 37.5645C63.1249 37.788 63.3079 37.9691 63.5336 37.9691Z" fill="white"/>
<path d="M68.0674 40.6084C68.293 40.6084 68.4759 40.4272 68.4759 40.2038C68.4759 39.9803 68.293 39.7993 68.0674 39.7993C67.8416 39.7993 67.6586 39.9803 67.6586 40.2038C67.6586 40.4272 67.8416 40.6084 68.0674 40.6084Z" fill="white"/>
<path d="M72.5914 43.2573C72.817 43.2573 73 43.0761 73 42.8528C73 42.6293 72.817 42.4482 72.5914 42.4482C72.3657 42.4482 72.1826 42.6293 72.1826 42.8528C72.1826 43.0761 72.3657 43.2573 72.5914 43.2573Z" fill="white"/>
<path d="M49.9611 35.6766C50.4286 35.6766 50.8075 35.3013 50.8075 34.8385C50.8075 34.3757 50.4286 34.0005 49.9611 34.0005C49.4936 34.0005 49.1146 34.3757 49.1146 34.8385C49.1146 35.3013 49.4936 35.6766 49.9611 35.6766Z" fill="white"/>
<path d="M54.4854 38.3255C54.9528 38.3255 55.3318 37.9502 55.3318 37.4875C55.3318 37.0246 54.9528 36.6494 54.4854 36.6494C54.0179 36.6494 53.6389 37.0246 53.6389 37.4875C53.6389 37.9502 54.0179 38.3255 54.4854 38.3255Z" fill="white"/>
<path d="M59.0096 40.9744C59.4771 40.9744 59.856 40.5991 59.856 40.1364C59.856 39.6736 59.4771 39.2984 59.0096 39.2984C58.5421 39.2984 58.1631 39.6736 58.1631 40.1364C58.1631 40.5991 58.5421 40.9744 59.0096 40.9744Z" fill="white"/>
<path d="M63.5336 43.6234C64.0011 43.6234 64.3801 43.2481 64.3801 42.7853C64.3801 42.3225 64.0011 41.9473 63.5336 41.9473C63.0661 41.9473 62.6872 42.3225 62.6872 42.7853C62.6872 43.2481 63.0661 43.6234 63.5336 43.6234Z" fill="white"/>
<path d="M68.0674 46.2627C68.5349 46.2627 68.9138 45.8874 68.9138 45.4246C68.9138 44.9618 68.5349 44.5866 68.0674 44.5866C67.5999 44.5866 67.2209 44.9618 67.2209 45.4246C67.2209 45.8874 67.5999 46.2627 68.0674 46.2627Z" fill="white"/>
<path d="M72.5914 48.4781C72.817 48.4781 73 48.297 73 48.0735C73 47.85 72.817 47.6689 72.5914 47.6689C72.3657 47.6689 72.1826 47.85 72.1826 48.0735C72.1826 48.297 72.3657 48.4781 72.5914 48.4781Z" fill="white"/>
<path d="M49.9612 41.7354C50.8962 41.7354 51.6541 40.985 51.6541 40.0594C51.6541 39.1337 50.8962 38.3833 49.9612 38.3833C49.0262 38.3833 48.2683 39.1337 48.2683 40.0594C48.2683 40.985 49.0262 41.7354 49.9612 41.7354Z" fill="white"/>
<path d="M54.4855 44.3844C55.4205 44.3844 56.1784 43.634 56.1784 42.7083C56.1784 41.7826 55.4205 41.0322 54.4855 41.0322C53.5505 41.0322 52.7926 41.7826 52.7926 42.7083C52.7926 43.634 53.5505 44.3844 54.4855 44.3844Z" fill="white"/>
<path d="M59.0095 47.0333C59.9445 47.0333 60.7024 46.2829 60.7024 45.3572C60.7024 44.4316 59.9445 43.6812 59.0095 43.6812C58.0745 43.6812 57.3166 44.4316 57.3166 45.3572C57.3166 46.2829 58.0745 47.0333 59.0095 47.0333Z" fill="white"/>
<path d="M63.5335 49.6726C64.4684 49.6726 65.2264 48.9222 65.2264 47.9965C65.2264 47.0708 64.4684 46.3205 63.5335 46.3205C62.5986 46.3205 61.8407 47.0708 61.8407 47.9965C61.8407 48.9222 62.5986 49.6726 63.5335 49.6726Z" fill="white"/>
<path d="M68.0674 51.4834C68.5349 51.4834 68.9138 51.1082 68.9138 50.6454C68.9138 50.1825 68.5349 49.8074 68.0674 49.8074C67.5999 49.8074 67.2209 50.1825 67.2209 50.6454C67.2209 51.1082 67.5999 51.4834 68.0674 51.4834Z" fill="white"/>
<path d="M72.5914 53.6988C72.817 53.6988 73 53.5177 73 53.2942C73 53.0708 72.817 52.8896 72.5914 52.8896C72.3657 52.8896 72.1826 53.0708 72.1826 53.2942C72.1826 53.5177 72.3657 53.6988 72.5914 53.6988Z" fill="white"/>
<path d="M49.9612 46.9561C50.8962 46.9561 51.6541 46.2058 51.6541 45.2801C51.6541 44.3545 50.8962 43.604 49.9612 43.604C49.0262 43.604 48.2683 44.3545 48.2683 45.2801C48.2683 46.2058 49.0262 46.9561 49.9612 46.9561Z" fill="white"/>
<path d="M54.4855 49.6051C55.4205 49.6051 56.1784 48.8547 56.1784 47.929C56.1784 47.0034 55.4205 46.253 54.4855 46.253C53.5505 46.253 52.7926 47.0034 52.7926 47.929C52.7926 48.8547 53.5505 49.6051 54.4855 49.6051Z" fill="white"/>
<path d="M59.0095 52.2444C59.9445 52.2444 60.7024 51.494 60.7024 50.5683C60.7024 49.6427 59.9445 48.8923 59.0095 48.8923C58.0745 48.8923 57.3166 49.6427 57.3166 50.5683C57.3166 51.494 58.0745 52.2444 59.0095 52.2444Z" fill="white"/>
<path d="M63.5335 54.8933C64.4684 54.8933 65.2264 54.1429 65.2264 53.2172C65.2264 52.2917 64.4684 51.5412 63.5335 51.5412C62.5986 51.5412 61.8407 52.2917 61.8407 53.2172C61.8407 54.1429 62.5986 54.8933 63.5335 54.8933Z" fill="white"/>
<path d="M68.0674 56.7041C68.5349 56.7041 68.9138 56.3289 68.9138 55.8661C68.9138 55.4032 68.5349 55.0281 68.0674 55.0281C67.5999 55.0281 67.2209 55.4032 67.2209 55.8661C67.2209 56.3289 67.5999 56.7041 68.0674 56.7041Z" fill="white"/>
<path d="M72.5914 58.9198C72.817 58.9198 73 58.7387 73 58.5152C73 58.2917 72.817 58.1106 72.5914 58.1106C72.3657 58.1106 72.1826 58.2917 72.1826 58.5152C72.1826 58.7387 72.3657 58.9198 72.5914 58.9198Z" fill="white"/>
<path d="M49.9611 51.339C50.4286 51.339 50.8075 50.9638 50.8075 50.501C50.8075 50.0381 50.4286 49.663 49.9611 49.663C49.4936 49.663 49.1146 50.0381 49.1146 50.501C49.1146 50.9638 49.4936 51.339 49.9611 51.339Z" fill="white"/>
<path d="M54.4854 53.9783C54.9528 53.9783 55.3318 53.603 55.3318 53.1403C55.3318 52.6774 54.9528 52.3023 54.4854 52.3023C54.0179 52.3023 53.6389 52.6774 53.6389 53.1403C53.6389 53.603 54.0179 53.9783 54.4854 53.9783Z" fill="white"/>
<path d="M59.0096 56.6273C59.4771 56.6273 59.856 56.252 59.856 55.7892C59.856 55.3264 59.4771 54.9512 59.0096 54.9512C58.5421 54.9512 58.1631 55.3264 58.1631 55.7892C58.1631 56.252 58.5421 56.6273 59.0096 56.6273Z" fill="white"/>
<path d="M63.5336 59.2762C64.0011 59.2762 64.3801 58.9009 64.3801 58.4381C64.3801 57.9753 64.0011 57.6001 63.5336 57.6001C63.0661 57.6001 62.6872 57.9753 62.6872 58.4381C62.6872 58.9009 63.0661 59.2762 63.5336 59.2762Z" fill="white"/>
<path d="M68.0674 61.4916C68.293 61.4916 68.4759 61.3105 68.4759 61.087C68.4759 60.8636 68.293 60.6824 68.0674 60.6824C67.8416 60.6824 67.6586 60.8636 67.6586 61.087C67.6586 61.3105 67.8416 61.4916 68.0674 61.4916Z" fill="white"/>
<path d="M72.5914 64.1405C72.817 64.1405 73 63.9594 73 63.736C73 63.5126 72.817 63.3314 72.5914 63.3314C72.3657 63.3314 72.1826 63.5126 72.1826 63.736C72.1826 63.9594 72.3657 64.1405 72.5914 64.1405Z" fill="white"/>
<path d="M49.9613 56.1165C50.1869 56.1165 50.3699 55.9354 50.3699 55.712C50.3699 55.4886 50.1869 55.3074 49.9613 55.3074C49.7355 55.3074 49.5526 55.4886 49.5526 55.712C49.5526 55.9354 49.7355 56.1165 49.9613 56.1165Z" fill="white"/>
<path d="M54.4853 58.7654C54.711 58.7654 54.8939 58.5844 54.8939 58.3609C54.8939 58.1375 54.711 57.9563 54.4853 57.9563C54.2596 57.9563 54.0767 58.1375 54.0767 58.3609C54.0767 58.5844 54.2596 58.7654 54.4853 58.7654Z" fill="white"/>
<path d="M59.0093 61.4144C59.235 61.4144 59.4179 61.2333 59.4179 61.0098C59.4179 60.7864 59.235 60.6053 59.0093 60.6053C58.7836 60.6053 58.6007 60.7864 58.6007 61.0098C58.6007 61.2333 58.7836 61.4144 59.0093 61.4144Z" fill="white"/>
<path d="M63.5336 64.0633C63.7593 64.0633 63.9422 63.8822 63.9422 63.6588C63.9422 63.4354 63.7593 63.2542 63.5336 63.2542C63.3079 63.2542 63.1249 63.4354 63.1249 63.6588C63.1249 63.8822 63.3079 64.0633 63.5336 64.0633Z" fill="white"/>
<path d="M68.0674 66.7123C68.293 66.7123 68.4759 66.5312 68.4759 66.3077C68.4759 66.0843 68.293 65.9031 68.0674 65.9031C67.8416 65.9031 67.6586 66.0843 67.6586 66.3077C67.6586 66.5312 67.8416 66.7123 68.0674 66.7123Z" fill="white"/>
<path d="M49.9613 61.3375C50.1869 61.3375 50.3699 61.1565 50.3699 60.933C50.3699 60.7095 50.1869 60.5284 49.9613 60.5284C49.7355 60.5284 49.5526 60.7095 49.5526 60.933C49.5526 61.1565 49.7355 61.3375 49.9613 61.3375Z" fill="white"/>
<path d="M54.4853 63.9865C54.711 63.9865 54.8939 63.8054 54.8939 63.5819C54.8939 63.3584 54.711 63.1774 54.4853 63.1774C54.2596 63.1774 54.0767 63.3584 54.0767 63.5819C54.0767 63.8054 54.2596 63.9865 54.4853 63.9865Z" fill="white"/>
<path d="M59.0093 66.6354C59.235 66.6354 59.4179 66.4543 59.4179 66.2309C59.4179 66.0074 59.235 65.8263 59.0093 65.8263C58.7836 65.8263 58.6007 66.0074 58.6007 66.2309C58.6007 66.4543 58.7836 66.6354 59.0093 66.6354Z" fill="white"/>
<path d="M63.5336 69.2844C63.7593 69.2844 63.9422 69.1033 63.9422 68.8798C63.9422 68.6563 63.7593 68.4752 63.5336 68.4752C63.3079 68.4752 63.1249 68.6563 63.1249 68.8798C63.1249 69.1033 63.3079 69.2844 63.5336 69.2844Z" fill="white"/>
<path d="M49.9613 66.5583C50.1869 66.5583 50.3699 66.3772 50.3699 66.1537C50.3699 65.9303 50.1869 65.7492 49.9613 65.7492C49.7355 65.7492 49.5526 65.9303 49.5526 66.1537C49.5526 66.3772 49.7355 66.5583 49.9613 66.5583Z" fill="white"/>
<path d="M54.4853 69.2072C54.711 69.2072 54.8939 69.0261 54.8939 68.8027C54.8939 68.5793 54.711 68.3981 54.4853 68.3981C54.2596 68.3981 54.0767 68.5793 54.0767 68.8027C54.0767 69.0261 54.2596 69.2072 54.4853 69.2072Z" fill="white"/>
<path d="M59.0093 71.8562C59.235 71.8562 59.4179 71.6751 59.4179 71.4516C59.4179 71.2282 59.235 71.047 59.0093 71.047C58.7836 71.047 58.6007 71.2282 58.6007 71.4516C58.6007 71.6751 58.7836 71.8562 59.0093 71.8562Z" fill="white"/>
<path d="M49.9613 71.779C50.1869 71.779 50.3699 71.5979 50.3699 71.3744C50.3699 71.151 50.1869 70.9698 49.9613 70.9698C49.7355 70.9698 49.5526 71.151 49.5526 71.3744C49.5526 71.5979 49.7355 71.779 49.9613 71.779Z" fill="white"/>
<path d="M54.4853 74.4279C54.711 74.4279 54.8939 74.2468 54.8939 74.0233C54.8939 73.8 54.711 73.6188 54.4853 73.6188C54.2596 73.6188 54.0767 73.8 54.0767 74.0233C54.0767 74.2468 54.2596 74.4279 54.4853 74.4279Z" fill="white"/>
<path d="M49.9613 77C50.1869 77 50.3699 76.8189 50.3699 76.5954C50.3699 76.3721 50.1869 76.1909 49.9613 76.1909C49.7355 76.1909 49.5526 76.3721 49.5526 76.5954C49.5526 76.8189 49.7355 77 49.9613 77Z" fill="white"/>
<path d="M49.4943 23.8091C49.7199 23.8091 49.9029 23.628 49.9029 23.4046C49.9029 23.1812 49.7199 23 49.4943 23C49.2686 23 49.0856 23.1812 49.0856 23.4046C49.0856 23.628 49.2686 23.8091 49.4943 23.8091Z" fill="white"/>
<path d="M44.9701 26.4581C45.1957 26.4581 45.3786 26.277 45.3786 26.0535C45.3786 25.8301 45.1957 25.6489 44.9701 25.6489C44.7443 25.6489 44.5613 25.8301 44.5613 26.0535C44.5613 26.277 44.7443 26.4581 44.9701 26.4581Z" fill="white"/>
<path d="M40.4458 29.107C40.6715 29.107 40.8544 28.9259 40.8544 28.7024C40.8544 28.4791 40.6715 28.2979 40.4458 28.2979C40.2201 28.2979 40.0371 28.4791 40.0371 28.7024C40.0371 28.9259 40.2201 29.107 40.4458 29.107Z" fill="white"/>
<path d="M35.9217 31.7559C36.1474 31.7559 36.3304 31.5748 36.3304 31.3514C36.3304 31.128 36.1474 30.9468 35.9217 30.9468C35.696 30.9468 35.5131 31.128 35.5131 31.3514C35.5131 31.5748 35.696 31.7559 35.9217 31.7559Z" fill="white"/>
<path d="M31.3977 34.4049C31.6233 34.4049 31.8064 34.2238 31.8064 34.0003C31.8064 33.7769 31.6233 33.5957 31.3977 33.5957C31.172 33.5957 30.9891 33.7769 30.9891 34.0003C30.9891 34.2238 31.172 34.4049 31.3977 34.4049Z" fill="white"/>
<path d="M49.4943 29.0301C49.7199 29.0301 49.9029 28.8489 49.9029 28.6256C49.9029 28.4021 49.7199 28.221 49.4943 28.221C49.2686 28.221 49.0856 28.4021 49.0856 28.6256C49.0856 28.8489 49.2686 29.0301 49.4943 29.0301Z" fill="white"/>
<path d="M44.9701 31.6791C45.1957 31.6791 45.3786 31.4979 45.3786 31.2745C45.3786 31.051 45.1957 30.8699 44.9701 30.8699C44.7443 30.8699 44.5613 31.051 44.5613 31.2745C44.5613 31.4979 44.7443 31.6791 44.9701 31.6791Z" fill="white"/>
<path d="M40.4458 34.328C40.6715 34.328 40.8544 34.1468 40.8544 33.9234C40.8544 33.7 40.6715 33.5189 40.4458 33.5189C40.2201 33.5189 40.0371 33.7 40.0371 33.9234C40.0371 34.1468 40.2201 34.328 40.4458 34.328Z" fill="white"/>
<path d="M49.4261 23.8091C49.6518 23.8091 49.8347 23.628 49.8347 23.4046C49.8347 23.1812 49.6518 23 49.4261 23C49.2005 23 49.0175 23.1812 49.0175 23.4046C49.0175 23.628 49.2005 23.8091 49.4261 23.8091Z" fill="white"/>
<path d="M53.9501 26.4581C54.1758 26.4581 54.3588 26.277 54.3588 26.0535C54.3588 25.8301 54.1758 25.6489 53.9501 25.6489C53.7245 25.6489 53.5415 25.8301 53.5415 26.0535C53.5415 26.277 53.7245 26.4581 53.9501 26.4581Z" fill="white"/>
<path d="M58.4744 29.107C58.7 29.107 58.883 28.9259 58.883 28.7024C58.883 28.4791 58.7 28.2979 58.4744 28.2979C58.2487 28.2979 58.0658 28.4791 58.0658 28.7024C58.0658 28.9259 58.2487 29.107 58.4744 29.107Z" fill="white"/>
<path d="M62.9984 31.7559C63.2241 31.7559 63.407 31.5748 63.407 31.3514C63.407 31.128 63.2241 30.9468 62.9984 30.9468C62.7727 30.9468 62.5898 31.128 62.5898 31.3514C62.5898 31.5748 62.7727 31.7559 62.9984 31.7559Z" fill="white"/>
<path d="M67.5322 34.4049C67.7579 34.4049 67.9408 34.2238 67.9408 34.0003C67.9408 33.7769 67.7579 33.5957 67.5322 33.5957C67.3064 33.5957 67.1235 33.7769 67.1235 34.0003C67.1235 34.2238 67.3064 34.4049 67.5322 34.4049Z" fill="white"/>
<path d="M49.4261 29.0301C49.6518 29.0301 49.8347 28.8489 49.8347 28.6256C49.8347 28.4021 49.6518 28.221 49.4261 28.221C49.2005 28.221 49.0175 28.4021 49.0175 28.6256C49.0175 28.8489 49.2005 29.0301 49.4261 29.0301Z" fill="white"/>
<path d="M53.9501 31.6791C54.1758 31.6791 54.3588 31.4979 54.3588 31.2745C54.3588 31.051 54.1758 30.8699 53.9501 30.8699C53.7245 30.8699 53.5415 31.051 53.5415 31.2745C53.5415 31.4979 53.7245 31.6791 53.9501 31.6791Z" fill="white"/>
<path d="M58.4744 34.328C58.7 34.328 58.883 34.1468 58.883 33.9234C58.883 33.7 58.7 33.5189 58.4744 33.5189C58.2487 33.5189 58.0658 33.7 58.0658 33.9234C58.0658 34.1468 58.2487 34.328 58.4744 34.328Z" fill="white"/>
<defs>
<linearGradient id="paint0_linear_4_530" x1="50" y1="0" x2="50" y2="100" gradientUnits="userSpaceOnUse">
<stop stop-color="#545454"/>
<stop offset="1"/>
</linearGradient>
</defs>
</svg>
